<svg id="account" xmlns="http://www.w3.org/2000/svg" width="125.489" height="125.506" viewBox="0 0 125.489 125.506">
  <path id="Path_298" data-name="Path 298" d="M62.753,0a62.753,62.753,0,0,0,0,125.506q2.836,0,5.648-.253c1.742-.156,3.47-.4,5.183-.695l.659-.116A62.753,62.753,0,0,0,62.753,0ZM57.712,121.1h-.148c-1.627-.144-3.242-.362-4.842-.64-.092-.016-.184-.027-.274-.044Q50.1,120,47.8,119.384l-.371-.095c-1.5-.405-2.974-.876-4.432-1.4-.151-.054-.3-.1-.455-.158-1.429-.525-2.832-1.113-4.214-1.75-.172-.077-.343-.15-.515-.232-1.355-.627-2.684-1.334-3.987-2.077l-.554-.312q-1.924-1.123-3.766-2.4c-.186-.13-.374-.255-.559-.385-1.208-.857-2.386-1.767-3.533-2.719l-.316-.276V89.946A23.037,23.037,0,0,1,48.111,66.937H77.4a23.037,23.037,0,0,1,23.009,23.009v17.638l-.278.232q-1.754,1.465-3.6,2.772c-.163.114-.329.224-.491.336q-1.866,1.3-3.824,2.441c-.163.095-.331.185-.493.279-1.323.753-2.668,1.464-4.04,2.1-.157.074-.316.142-.475.209-1.393.642-2.809,1.234-4.248,1.763-.143.053-.287.1-.419.149-1.465.525-2.95,1-4.453,1.407l-.361.09c-1.535.405-3.085.755-4.651,1.036-.09.016-.18.028-.27.042-1.6.28-3.219.5-4.847.642H67.8c-1.673.144-3.347.222-5.041.222S59.382,121.245,57.712,121.1Zm46.877-17.4V89.946A27.225,27.225,0,0,0,77.4,62.753H48.111A27.225,27.225,0,0,0,20.918,89.946V103.7a58.57,58.57,0,1,1,83.671,0Zm0,0"/>
  <path id="Path_299" data-name="Path 299" d="M180.918,64a20.918,20.918,0,1,0,20.918,20.918A20.917,20.917,0,0,0,180.918,64Zm0,37.652a16.734,16.734,0,1,1,16.734-16.734A16.734,16.734,0,0,1,180.918,101.652Zm0,0" transform="translate(-118.165 -47.266)"/>
</svg>
