<svg xmlns="http://www.w3.org/2000/svg" width="31" height="31" viewBox="0 0 31 31"><defs><style>.a{fill:#a1a0ae;}</style></defs><g transform="translate(0)"><g transform="translate(0)"><path class="a" d="M308.193,78.839a1.311,1.311,0,0,0-2.239-.927.454.454,0,1,0,.642.642.4.4,0,1,1,.57.57.454.454,0,0,0,.642.642A1.3,1.3,0,0,0,308.193,78.839Z" transform="translate(-287.305 -72.835)"/><path class="a" d="M30.246,12.83a9.507,9.507,0,0,0,.688-3.454,9.15,9.15,0,0,0-2.37-6.3A4.017,4.017,0,0,1,30.2,2.141a.454.454,0,1,0-.253-.872,4.926,4.926,0,0,0-2.026,1.169A9.33,9.33,0,0,0,18.174.758,3.5,3.5,0,0,0,15.995,0h-.053a3.52,3.52,0,0,0-3.077,5.128,2.075,2.075,0,0,0-.826.131,22.159,22.159,0,0,0-6.76,4.559,4.937,4.937,0,0,0-1.4,3.73c.023.406.062.858.114,1.344a14.81,14.81,0,0,0-2.977,3.852c-.47.9-1.178,2.578-.634,3.692l.007.014a6.356,6.356,0,0,0,8.16,8.16l.014.007a2.142,2.142,0,0,0,.945.194,6.987,6.987,0,0,0,3.331-1.154,15.093,15.093,0,0,0,3.265-2.65c.488.052.94.091,1.346.114q.14.008.28.008a4.936,4.936,0,0,0,3.45-1.4,22.613,22.613,0,0,0,3.09-3.923.454.454,0,1,0-.768-.484,21.676,21.676,0,0,1-2.957,3.759A4.025,4.025,0,0,1,17.5,26.213c-.213-.012-.44-.029-.679-.05q.181-.233.344-.467a4.79,4.79,0,0,0,.852-2.809A54.327,54.327,0,0,0,17.241,15l-.016-.094a27.664,27.664,0,0,1,7.109,2.274,1.179,1.179,0,0,1,.558,1.458c-.1.268-.228.562-.379.873a.454.454,0,1,0,.818.4c.163-.336.3-.656.411-.95a2.075,2.075,0,0,0,.13-.826,3.519,3.519,0,0,0,4.374-5.306ZM14.149,1.672a2.6,2.6,0,0,1,3.063-.465A9.726,9.726,0,0,0,13.6,4.573,2.6,2.6,0,0,1,14.149,1.672ZM2.507,28.493a5.437,5.437,0,0,1-1.393-5.332,19.067,19.067,0,0,0,4.878,1.847c.334,1.2.672,2.248,1,3.09a9.88,9.88,0,0,0,.854,1.787A5.437,5.437,0,0,1,2.507,28.493Zm13.915-3.315a13.625,13.625,0,0,1-4.046,3.7c-1.476.878-2.784,1.232-3.414.925a.33.33,0,0,1-.045-.027.464.464,0,0,0-.053-.044C8.492,29.388,7.749,28,6.8,24.541q0-.022-.012-.043-.161-.589-.329-1.259a.454.454,0,0,0-.881.22c.045.178.09.354.135.527-3.445-1-4.273-1.655-4.465-1.875l-.01-.011a.328.328,0,0,1-.043-.062c-.484-.99.713-3.753,2.933-6.014.217,1.6.55,3.467.962,5.35a.454.454,0,0,0,.887-.194A54.336,54.336,0,0,1,4.787,13.5a4.026,4.026,0,0,1,1.139-3.043,21.1,21.1,0,0,1,6.431-4.345,1.179,1.179,0,0,1,1.458.558,31.871,31.871,0,0,1,2.393,7.7.453.453,0,0,0,.024.12,47.132,47.132,0,0,1,.881,8.411A3.887,3.887,0,0,1,16.422,25.178Zm9-8.246a2.076,2.076,0,0,0-.668-.552,28.753,28.753,0,0,0-7.7-2.429,29.787,29.787,0,0,0-2.429-7.7,2.076,2.076,0,0,0-.552-.668,8.766,8.766,0,0,1,1.525-2.046,8.507,8.507,0,0,1,12.015-.14,8.507,8.507,0,0,1-.14,12.015A8.765,8.765,0,0,1,25.422,16.932Zm3.906-.081a2.6,2.6,0,0,1-2.9.544,9.777,9.777,0,0,0,3.367-3.6A2.6,2.6,0,0,1,29.328,16.851Z" transform="translate(0)"/><path class="a" d="M396.373,167.01a1.3,1.3,0,0,0-.927.384.454.454,0,0,0,.642.642.4.4,0,0,1,.57.57.454.454,0,0,0,.642.642,1.311,1.311,0,0,0-.927-2.238Z" transform="translate(-371.378 -156.898)"/><path class="a" d="M339.924,138.791a.751.751,0,0,1-.8-.8.454.454,0,1,0-.906-.062,1.659,1.659,0,0,0,1.656,1.774q.057,0,.114,0a.454.454,0,1,0-.062-.906Z" transform="translate(-317.735 -129.179)"/></g></g></svg>