<svg xmlns="http://www.w3.org/2000/svg" width="28" height="28" viewBox="0 0 28 28"><defs><style>.a{fill:#4c4f57;}.b{fill:#fff;}</style></defs><rect class="a" width="28" height="28" rx="5"/><g transform="translate(5.998 4.627)"><path class="b" d="M222.837,154.7a.439.439,0,0,0-.439.439v8.29a.439.439,0,0,0,.877,0v-8.29A.439.439,0,0,0,222.837,154.7Zm0,0" transform="translate(-212.647 -147.919)"/><path class="b" d="M104.837,154.7a.439.439,0,0,0-.439.439v8.29a.439.439,0,1,0,.877,0v-8.29A.439.439,0,0,0,104.837,154.7Zm0,0" transform="translate(-99.822 -147.919)"/><path class="b" d="M1.243,5.575V16.381a2.42,2.42,0,0,0,.643,1.669,2.16,2.16,0,0,0,1.567.678h8.3a2.159,2.159,0,0,0,1.567-.678,2.42,2.42,0,0,0,.643-1.669V5.575a1.676,1.676,0,0,0-.43-3.295H11.287V1.731A1.723,1.723,0,0,0,9.55,0H5.655A1.723,1.723,0,0,0,3.918,1.731V2.28H1.672a1.676,1.676,0,0,0-.43,3.295ZM11.752,17.851h-8.3A1.389,1.389,0,0,1,2.12,16.381V5.613H13.085V16.381A1.389,1.389,0,0,1,11.752,17.851ZM4.8,1.731a.845.845,0,0,1,.86-.855H9.55a.845.845,0,0,1,.86.855V2.28H4.8ZM1.672,3.157h11.86a.79.79,0,0,1,0,1.579H1.672a.79.79,0,1,1,0-1.579Zm0,0" transform="translate(0 0)"/><path class="b" d="M163.837,154.7a.439.439,0,0,0-.439.439v8.29a.439.439,0,1,0,.877,0v-8.29A.439.439,0,0,0,163.837,154.7Zm0,0" transform="translate(-156.234 -147.919)"/></g></svg>