<svg xmlns="http://www.w3.org/2000/svg" width="22" height="22" viewBox="0 0 22 22"><defs><style>.a{fill:#4c4f57;}</style></defs><path class="a" d="M19.422,1.719H18.391V0H16.672V1.719H5.328V0H3.609V1.719H2.578A2.581,2.581,0,0,0,0,4.3V19.422A2.581,2.581,0,0,0,2.578,22H19.422A2.581,2.581,0,0,0,22,19.422V4.3A2.581,2.581,0,0,0,19.422,1.719Zm.859,17.7a.86.86,0,0,1-.859.859H2.578a.86.86,0,0,1-.859-.859V8.078H20.281Zm0-13.062H1.719V4.3a.86.86,0,0,1,.859-.859H3.609V5.156H5.328V3.438H16.672V5.156h1.719V3.438h1.031a.86.86,0,0,1,.859.859Z"/><g transform="translate(3.511 9.656)"><g transform="translate(0 0)"><rect class="a" width="1" height="1" transform="translate(0.489 0.344)"/></g></g><g transform="translate(6.145 9.656)"><g transform="translate(0 0)"><rect class="a" width="2" height="1" transform="translate(-0.145 0.344)"/></g></g><g transform="translate(10.534 9.656)"><g transform="translate(0 0)"><rect class="a" width="1" height="1" transform="translate(0.466 0.344)"/></g></g><g transform="translate(14.046 9.656)"><g transform="translate(0 0)"><rect class="a" width="2" height="1" transform="translate(-0.046 0.344)"/></g></g><g transform="translate(16.679 9.656)"><g transform="translate(0 0)"><rect class="a" width="1" height="1" transform="translate(0.321 0.344)"/></g></g><g transform="translate(3.511 13.168)"><g transform="translate(0 0)"><rect class="a" width="1" height="2" transform="translate(0.489 -0.168)"/></g></g><g transform="translate(6.145 13.168)"><g transform="translate(0 0)"><rect class="a" width="2" height="2" transform="translate(-0.145 -0.168)"/></g></g><g transform="translate(10.534 13.168)"><g transform="translate(0 0)"><rect class="a" width="1" height="2" transform="translate(0.466 -0.168)"/></g></g><g transform="translate(14.046 13.168)"><g transform="translate(0 0)"><rect class="a" width="2" height="2" transform="translate(-0.046 -0.168)"/></g></g><g transform="translate(3.511 16.679)"><g transform="translate(0 0)"><rect class="a" width="1" height="1" transform="translate(0.489 0.321)"/></g></g><g transform="translate(6.145 16.679)"><g transform="translate(0 0)"><rect class="a" width="2" height="1" transform="translate(-0.145 0.321)"/></g></g><g transform="translate(10.534 16.679)"><g transform="translate(0 0)"><rect class="a" width="1" height="1" transform="translate(0.466 0.321)"/></g></g><g transform="translate(14.046 16.679)"><g transform="translate(0 0)"><rect class="a" width="2" height="1" transform="translate(-0.046 0.321)"/></g></g><g transform="translate(16.679 13.168)"><g transform="translate(0 0)"><rect class="a" width="1" height="2" transform="translate(0.321 -0.168)"/></g></g></svg>