<svg xmlns="http://www.w3.org/2000/svg" width="15.675" height="13.959" viewBox="0 0 15.675 13.959"><defs><style>.a{fill:#4c4f57;}</style></defs><g transform="translate(0 -28.029)"><g transform="translate(1.837 35.252)"><path class="a" d="M60.306,263.972a.306.306,0,1,0,.306.306A.306.306,0,0,0,60.306,263.972Z" transform="translate(-60 -263.972)"/></g><g transform="translate(0 28.029)"><path class="a" d="M15.675,36.323a1.375,1.375,0,0,0-.513-1.071,1.379,1.379,0,0,0,.494-1.3A1.42,1.42,0,0,0,14.24,32.8H11.324l.091-.272a3.9,3.9,0,0,0-1.105-4.192,1.3,1.3,0,0,0-2.06.544.306.306,0,0,0,0,.2,2.424,2.424,0,0,1,.012,1.877,5.882,5.882,0,0,1-1.831,1.91,4.549,4.549,0,0,1-.672.42,2.82,2.82,0,0,0-.964.741H3.674v-.306a.306.306,0,0,0-.306-.306H.306A.306.306,0,0,0,0,33.721v7.96a.306.306,0,0,0,.306.306H3.368a.306.306,0,0,0,.306-.306v-.918H5.391a4.848,4.848,0,0,0,3.231,1.225H12.46a1.377,1.377,0,0,0,1.145-2.143h.08a1.377,1.377,0,0,0,1.084-2.226A1.378,1.378,0,0,0,15.675,36.323ZM3.061,41.375H.612V34.027H3.061ZM14.3,37.089H11.358a.306.306,0,1,0,0,.612h2.327a.765.765,0,0,1,0,1.531H11.358a.306.306,0,1,0,0,.612h1.1a.765.765,0,0,1,0,1.531H8.622a4.238,4.238,0,0,1-2.9-1.142.306.306,0,0,0-.209-.082H3.674V34.64H4.94a.306.306,0,0,0,.247-.125,2.17,2.17,0,0,1,.858-.69,5.129,5.129,0,0,0,.755-.474c2.1-1.619,2.576-2.611,2.062-4.345a.681.681,0,0,1,1.069-.185,3.269,3.269,0,0,1,.9,3.516l-.155.466h-.392a.306.306,0,0,0,0,.612H14.24a.8.8,0,0,1,.812.635.766.766,0,0,1-.755.9H11.358a.306.306,0,1,0,0,.612H14.3a.765.765,0,1,1,0,1.531Z" transform="translate(0 -28.029)"/></g><g transform="translate(1.837 36.476)"><path class="a" d="M60.306,303.972a.306.306,0,0,0-.306.306v3.061a.306.306,0,1,0,.612,0v-3.061A.306.306,0,0,0,60.306,303.972Z" transform="translate(-60 -303.972)"/></g></g></svg>