<svg xmlns="http://www.w3.org/2000/svg" width="24.346" height="31" viewBox="0 0 24.346 31"><defs><style>.a{fill:#e6e7e8;}.b{fill:#fff;}.c{fill:#a1a0ae;}</style></defs><g transform="translate(-16.487 -3.5)"><path class="a" d="M43.5,20.676a10.666,10.666,0,1,0-21.033-2.51v1.192l-1.914,5.856a1.392,1.392,0,0,0,1.323,1.825h.777a.312.312,0,0,1,.312.312v3.266a1.962,1.962,0,0,0,1.96,1.96h3.763a1.449,1.449,0,0,1,1.448,1.448v2.627a.825.825,0,0,0,.824.824H41.369a.824.824,0,0,0,.813-.958l-.441-2.674A17.36,17.36,0,0,1,42,26.894Z" transform="translate(-2.975 -2.975)"/><g transform="translate(16.487 3.5)"><g transform="translate(0.257 0.256)"><path class="b" d="M27.14,33.4V30.768a1.7,1.7,0,0,0-1.7-1.7H21.673a1.7,1.7,0,0,1-1.7-1.7V24.095a.568.568,0,0,0-.568-.568h-.776a1.136,1.136,0,0,1-1.08-1.489l1.927-5.895V14.91A10.41,10.41,0,1,1,40,17.36l-1.505,6.218a17.715,17.715,0,0,0-.261,7.051l.441,2.674a.568.568,0,0,1-.56.66H27.708a.568.568,0,0,1-.568-.568Z" transform="translate(-17.488 -4.5)"/></g><g transform="translate(2.241 0.256)"><path class="b" d="M35.643,5.269a10.415,10.415,0,0,1,10.4,9.992,10.41,10.41,0,1,0-20.814-.351v.769A10.41,10.41,0,0,1,35.643,5.269Z" transform="translate(-25.233 -4.5)"/></g><path class="b" d="M43.565,33.673a2.71,2.71,0,0,0-3.226.233,3.334,3.334,0,0,0-1.091,2.237V36.5H38.44a1.639,1.639,0,0,0-1.5-1.633,5.127,5.127,0,0,1-2.612-.79,7.144,7.144,0,0,1-1.508-2.49,1.626,1.626,0,0,0-1.347-1.022,1.574,1.574,0,0,0-1.7,1.569V35.1h-1.6A1.537,1.537,0,0,0,26.7,36.178l-1.466,4.736a.512.512,0,0,0,.49.664h8.592l1.263.911a.609.609,0,1,1-.73.975l-.761-.592h-4.3a1.749,1.749,0,0,0-1.749,1.749v.9a1.749,1.749,0,0,0,1.749,1.749h1.865a.666.666,0,0,0,.674-.574.641.641,0,0,0-.637-.707h-1.9a.468.468,0,0,1-.468-.468v-.9a.468.468,0,0,1,.468-.468h3.86l.208.161a5.121,5.121,0,0,1,1.977,4.042V53.35h2.349V38.939h1.065v.252a3.193,3.193,0,0,0,.454,1.687,1.724,1.724,0,0,0,2.016.577c1.225-.526.86-1.641,1.178-2.5a21.518,21.518,0,0,0,1.549-2.3,2.5,2.5,0,0,0-.88-2.985Z" transform="translate(-22.978 -23.631)"/><g transform="translate(0 0)"><path class="c" d="M39.5,16.676a10.666,10.666,0,1,0-21.033-2.51v1.192l-1.914,5.856a1.392,1.392,0,0,0,1.323,1.825h.777a.312.312,0,0,1,.312.312v3.266a1.962,1.962,0,0,0,1.96,1.96h3.763a1.449,1.449,0,0,1,1.448,1.448v2.627a.825.825,0,0,0,.824.824H37.369a.824.824,0,0,0,.813-.958l-.441-2.674A17.36,17.36,0,0,1,38,22.894Zm-2.269,13.25.441,2.674a.312.312,0,0,1-.307.363h-5.42V27.134a.256.256,0,1,0-.512,0v5.829H29.6V28.224a5.342,5.342,0,0,0-2.075-4.244l-.208-.161a.256.256,0,0,0-.157-.054H23.3a.725.725,0,0,0-.724.724v.9a.725.725,0,0,0,.724.724h1.9a.384.384,0,0,1,.382.425.409.409,0,0,1-.419.344H23.3a1.494,1.494,0,0,1-1.493-1.493v-.9A1.494,1.494,0,0,1,23.3,23h4.212l.692.539A.865.865,0,1,0,29.24,22.15l-1.263-.911a.256.256,0,0,0-.15-.048H19.235a.256.256,0,0,1-.245-.332l1.466-4.736a1.275,1.275,0,0,1,1.224-.9l3.235,0a1.312,1.312,0,0,1,1.311,1.311v1.082a1.821,1.821,0,0,0,.956,1.6l4.254,2.3v1.706a.256.256,0,1,0,.512,0V19.064H32.5a3.414,3.414,0,0,0,.5,1.828,1.923,1.923,0,0,0,3.5-1.215,3.348,3.348,0,0,1,.149-.759,3.563,3.563,0,0,1,.466-.647,6.779,6.779,0,0,0,1.081-1.648,2.763,2.763,0,0,0-.98-3.3,2.958,2.958,0,0,0-3.53.256,3.592,3.592,0,0,0-1.18,2.431v.106h-.313a1.883,1.883,0,0,0-1.716-1.633A4.745,4.745,0,0,1,28,13.752a6.634,6.634,0,0,1-1.433-2.389A1.87,1.87,0,0,0,25,10.184a1.83,1.83,0,0,0-1.98,1.824v2.7H21.681a1.785,1.785,0,0,0-1.713,1.263L18.5,20.707a.769.769,0,0,0,.734,1h8.509l1.2.863a.354.354,0,0,1,.147.286.353.353,0,0,1-.57.279l-.761-.592a.256.256,0,0,0-.157-.054H23.3a2.007,2.007,0,0,0-2.005,2.005v.9A2.007,2.007,0,0,0,23.3,27.391h1.865a.925.925,0,0,0,.929-.805A.9.9,0,0,0,25.2,25.6H23.3a.212.212,0,0,1-.212-.212v-.9a.212.212,0,0,1,.212-.212h3.772l.138.107a4.833,4.833,0,0,1,1.878,3.839v4.739H26.963a.312.312,0,0,1-.312-.312V30.024a1.962,1.962,0,0,0-1.96-1.96H20.928a1.449,1.449,0,0,1-1.448-1.448V23.351a.825.825,0,0,0-.824-.824H17.88a.88.88,0,0,1-.836-1.153l1.927-5.895a.254.254,0,0,0,.013-.08V14.166a10.154,10.154,0,1,1,20.022,2.39L37.5,22.773a17.875,17.875,0,0,0-.265,7.153ZM32.758,18.552H31.693a.256.256,0,0,0-.256.256V20.94l-4.011-2.169a1.31,1.31,0,0,1-.687-1.153V16.536a1.826,1.826,0,0,0-1.823-1.823H23.536v-2.7a1.318,1.318,0,0,1,1.427-1.313,1.379,1.379,0,0,1,1.131.865,7.32,7.32,0,0,0,1.583,2.59A5.13,5.13,0,0,0,30.428,15a1.376,1.376,0,0,1,1.265,1.378.256.256,0,0,0,.256.256h.808a.256.256,0,0,0,.256-.256v-.362a3.08,3.08,0,0,1,1-2.043,2.447,2.447,0,0,1,2.921-.21,2.238,2.238,0,0,1,.779,2.673,6.393,6.393,0,0,1-1,1.517,3.469,3.469,0,0,0-.548.791,3.771,3.771,0,0,0-.177.876c-.078.65-.14,1.163-.861,1.473a1.46,1.46,0,0,1-1.7-.488,2.96,2.96,0,0,1-.409-1.541v-.252a.256.256,0,0,0-.256-.256Z" transform="translate(-16.487 -3.5)"/><path class="c" d="M75.1,83.375a.256.256,0,0,0-.256.256v1.857a.256.256,0,0,0,.512,0V83.631A.256.256,0,0,0,75.1,83.375Z" transform="translate(-59.889 -62.911)"/><path class="c" d="M83.1,51.725h.559a1.115,1.115,0,0,0,.137-2.222v-.811a1.062,1.062,0,0,1,2.124,0v.519a.256.256,0,1,0,.512,0v-.519a1.575,1.575,0,1,0-3.149,0V49.75a.256.256,0,0,0,.256.256h.12a.6.6,0,1,1,0,1.206H83.1a.256.256,0,0,0,0,.512Z" transform="translate(-65.84 -35.942)"/></g></g></g></svg>