<svg height="512" viewBox="0 0 60 60" width="512" xmlns="http://www.w3.org/2000/svg"><g id="Page-1" fill="none" fill-rule="evenodd"><g id="023---First-Aider-Male" fill="rgb(0,0,0)" fill-rule="nonzero" transform="translate(0 -1)"><path id="Shape" d="m55 31h-2v-1c-.0033061-2.7600532-2.2399468-4.9966939-5-5h-8c-2.7600532.0033061-4.9966939 2.2399468-5 5v1h-2c-1.7273732.0041663-3.3295776.9019304-4.235 2.373-.458145-.1353998-.9235477-.2449063-1.394-.328l-2.371-1.58v-4.109c.184-.216.366-.419.552-.649 1.3810213-1.7197979 2.2167569-3.8129676 2.4-6.011 1.495-1.012 2.048-4.255 2.048-5.196.0506882-1.4003137-.7351657-2.6969727-2-3.3v-.892c.0736616-5.34877744-4.0042135-9.84252153-9.335-10.287-2.8156065-.1874521-5.5794513.82280975-7.610461 2.78183436-2.0310098 1.9590246-3.14030812 4.68462993-3.054539 7.50516564v.892c-1.26483426.6030273-2.05068822 1.8996863-2 3.3 0 .941.553 4.184 2.045 5.2.18324307 2.1980324 1.01897874 4.2912021 2.4 6.011.186.23.368.433.552.649v4.109l-2.371 1.578c-3.126.475-8.626 2.878-8.626 8.953v16c0 1.6568542 1.34314575 3 3 3h52c2.209139 0 4-1.790861 4-4v-15.278c.6167513-.3544126.997855-1.0106732 1-1.722v-4c-.0033061-2.7600532-2.2399468-4.9966939-5-5zm-18-1c0-1.6568542 1.3431458-3 3-3h8c1.6568542 0 3 1.3431458 3 3v1h-14zm-7 6c0-1.6568542 1.3431458-3 3-3h22c1.6568542 0 3 1.3431458 3 3v4h-28zm-1 5.722v15.278c.0041446.7042532.1960759 1.3946535.556 2h-10.556v-19.82l1.622 1.4c.4109466.327503.9362396.4761757 1.4578676.4126176s.9958515-.3340176 1.3161324-.7506176l4.021-5.147c.184.04.4.093.658.164-.0435767.2447656-.0686477.4924668-.075.741v4c.002145.7113268.3832487 1.3675874 1 1.722zm-16-12.266c1.825 1.676 3.5 2.544 5 2.544s3.175-.867 5-2.543v2.076l-5 4.167-5-4.166zm8.892 9.576-2.345-2.019 4.519-3.767 1.492.994zm-11.883-19.055c-.0087124-.5042571-.39155489-.9231117-.893-.977-.68185282-1.0441892-1.0675595-2.2538428-1.116-3.5 0-.8.467-1.5 1-1.5.55228475 0 1-.4477153 1-1v-1.692c-.07509136-4.2954042 3.1861951-7.91662904 7.466-8.29.3559292-.02399952.7130708-.02399952 1.069 0 4.279643.37339346 7.5406243 3.99476449 7.465 8.29v1.692c0 .5522847.4477153 1 1 1 .533 0 1 .7 1 1.5-.0484405 1.2461572-.4341472 2.4558108-1.116 3.5-.4999605.0536894-.882298.4702789-.893.973-.0427432 1.995045-.7425901 3.9202392-1.991 5.477-2.34 2.891-4.525 4.55-6 4.55s-3.66-1.658-6-4.549c-1.2477904-1.5559508-1.9476003-3.4799889-1.991-5.474zm1.925 13.269 4.525 3.772-2.279 1.989-3.728-4.773zm-9.934 24.754v-16c0-5.114 4.921-6.565 6.582-6.91l4.026 5.155c.3695075.4745153.9365882.7528937 1.538.755.4611153-.0031121.9076302-.1620531 1.267-.451l1.587-1.368v19.819h-14c-.55228475 0-1-.4477153-1-1zm53 1h-22c-1.1045695 0-2-.8954305-2-2v-15h26v15c0 1.1045695-.8954305 2-2 2z"/><path id="Shape" d="m49 49h-4v-4c0-.5522847-.4477153-1-1-1s-1 .4477153-1 1v4h-4c-.5522847 0-1 .4477153-1 1s.4477153 1 1 1h4v4c0 .5522847.4477153 1 1 1s1-.4477153 1-1v-4h4c.5522847 0 1-.4477153 1-1s-.4477153-1-1-1z"/><circle id="Oval" cx="22" cy="44" r="1"/><circle id="Oval" cx="22" cy="48" r="1"/><circle id="Oval" cx="22" cy="52" r="1"/><circle id="Oval" cx="22" cy="56" r="1"/></g></g></svg>