<svg xmlns="http://www.w3.org/2000/svg" width="24.619" height="24.619" viewBox="0 0 24.619 24.619"><defs><style>.a{fill:#fff;}</style></defs><path class="a" d="M21.013,3.605A12.309,12.309,0,0,0,3.605,21.013,12.309,12.309,0,0,0,21.013,3.605Zm-8.7,19.571A10.867,10.867,0,1,1,23.176,12.309,10.879,10.879,0,0,1,12.309,23.176Z"/><g transform="translate(13.906 6.622)"><path class="a" d="M289.92,137.723a.721.721,0,0,0-.721.721v9.932a.721.721,0,1,0,1.443,0v-9.932A.721.721,0,0,0,289.92,137.723Z" transform="translate(-289.199 -137.723)"/></g><g transform="translate(9.27 6.622)"><path class="a" d="M193.52,137.723a.721.721,0,0,0-.721.721v9.932a.721.721,0,1,0,1.442,0v-9.932A.721.721,0,0,0,193.52,137.723Z" transform="translate(-192.799 -137.723)"/></g></svg>