<svg  viewBox="0 -0.029 16.625 16.623"  xmlns='http://www.w3.org/2000/svg'>
			<path fill="rgba(0,0,0,1)" id="pen" d="M 14.7155237197876 0.6398541331291199 C 13.82174873352051 -0.2523472011089325 12.37439060211182 -0.2523472011089325 11.48061561584473 0.6398541331291199 L 10.67084980010986 1.454056024551392 L 2.050959825515747 10.06936645507812 L 2.03264045715332 10.08782958984375 C 2.028203725814819 10.09226512908936 2.028203725814819 10.09698867797852 2.023481130599976 10.09698867797852 C 2.014321327209473 10.11072826385498 2.000581979751587 10.12432384490967 1.991565346717834 10.13806343078613 C 1.991565346717834 10.14264297485352 1.986842632293701 10.14264297485352 1.986842632293701 10.14722347259521 C 1.977682828903198 10.16096210479736 1.973246097564697 10.17012214660645 1.963943600654602 10.18386173248291 C 1.959506988525391 10.18844127655029 1.959506988525391 10.19287776947021 1.954927086830139 10.19760036468506 C 1.950347304344177 10.21133995056152 1.945767641067505 10.22049999237061 1.941044449806213 10.23423862457275 C 1.941044449806213 10.23867607116699 1.936607837677002 10.23867607116699 1.936607837677002 10.24339866638184 L 0.02411402761936188 15.99447631835938 C -0.03198846057057381 16.15820503234863 0.01066089980304241 16.33953475952148 0.1338860094547272 16.4610424041748 C 0.2204727679491043 16.54648590087891 0.3372575342655182 16.59428596496582 0.4587652385234833 16.59385681152344 C 0.5084273815155029 16.59299850463867 0.5576602220535278 16.58527183532715 0.6051756143569946 16.57095909118652 L 6.35181713104248 14.65388488769531 C 6.356253623962402 14.65388488769531 6.356253623962402 14.65388488769531 6.360976696014404 14.64944839477539 C 6.375431537628174 14.64515399932861 6.389313697814941 14.63900089263916 6.40205192565918 14.63098621368408 C 6.405629634857178 14.63055610656738 6.408778667449951 14.628981590271 6.411354541778564 14.62654876708984 C 6.42495059967041 14.61738872528076 6.443269729614258 14.60808658599854 6.457009315490723 14.59892749786377 C 6.470605373382568 14.58991050720215 6.484488010406494 14.576171875 6.498227119445801 14.56701183319092 C 6.502807140350342 14.56228923797607 6.507244110107422 14.56228923797607 6.507244110107422 14.55785179138184 C 6.511966705322266 14.55327224731445 6.521126270294189 14.54883575439453 6.525705814361572 14.53953456878662 L 15.95536041259766 5.109877109527588 C 16.84756278991699 4.216101169586182 16.84756278991699 2.768743276596069 15.95536041259766 1.875110745429993 L 14.7155237197876 0.6398541331291199 Z M 6.205406665802002 13.57863426208496 L 3.021017551422119 10.39438819885254 L 10.99114894866943 2.424256563186646 L 14.175537109375 5.608502388000488 L 6.205406665802002 13.57863426208496 Z M 2.572484016418457 11.2407922744751 L 5.354423522949219 14.02258777618408 L 1.177077412605286 15.41341400146484 L 2.572484016418457 11.2407922744751 Z M 15.31032371520996 4.469277858734131 L 14.82529449462891 4.958887100219727 L 11.64076519012451 1.774355411529541 L 12.13051509857178 1.284889817237854 C 12.66620922088623 0.749626100063324 13.53450870513916 0.749626100063324 14.07034492492676 1.284889817237854 L 15.3147611618042 2.529305696487427 C 15.8464469909668 3.067431688308716 15.84444332122803 3.933728694915771 15.31032371520996 4.469277858734131 Z M 15.31032371520996 4.469277858734131">
			</path>
		</svg>