<svg xmlns="http://www.w3.org/2000/svg" width="61" height="61.008" viewBox="0 0 61 61.008"><defs><style>.a{fill:#4c4f57;}</style></defs><path class="a" d="M30.5,0a30.5,30.5,0,0,0,0,61.008q1.378,0,2.746-.123c.847-.076,1.687-.192,2.52-.338l.32-.057A30.5,30.5,0,0,0,30.5,0ZM28.053,58.867h-.072c-.791-.07-1.576-.176-2.354-.311-.045-.008-.089-.013-.133-.021q-1.141-.2-2.259-.5l-.18-.046c-.727-.2-1.446-.426-2.154-.68-.073-.026-.147-.05-.221-.077-.695-.255-1.377-.541-2.049-.85-.083-.037-.167-.073-.25-.113-.659-.3-1.3-.648-1.938-1.01l-.269-.151q-.935-.546-1.831-1.166c-.09-.063-.182-.124-.272-.187-.587-.417-1.16-.859-1.717-1.322L12.2,52.3V43.723A11.2,11.2,0,0,1,23.386,32.538H37.622A11.2,11.2,0,0,1,48.807,43.723V52.3l-.135.113q-.853.712-1.751,1.347c-.079.056-.16.109-.239.163q-.907.63-1.859,1.187c-.079.046-.161.09-.24.136-.643.366-1.3.711-1.964,1.023-.076.036-.153.069-.231.1-.677.312-1.365.6-2.065.857-.07.026-.14.048-.2.072-.712.255-1.434.486-2.165.684l-.175.044c-.746.2-1.5.367-2.261.5-.044.008-.087.013-.131.02-.779.136-1.565.242-2.356.312H32.96c-.813.07-1.627.108-2.451.108S28.865,58.937,28.053,58.867ZM50.84,50.411V43.723A13.234,13.234,0,0,0,37.622,30.5H23.386A13.234,13.234,0,0,0,10.168,43.723V50.41a28.471,28.471,0,1,1,40.672,0Zm0,0"/><path class="a" d="M170.168,64a10.168,10.168,0,1,0,10.168,10.168A10.168,10.168,0,0,0,170.168,64Zm0,18.3a8.134,8.134,0,1,1,8.134-8.134A8.134,8.134,0,0,1,170.168,82.3Zm0,0" transform="translate(-139.664 -55.866)"/></svg>