<svg xmlns="http://www.w3.org/2000/svg" width="28.737" height="28.838" viewBox="0 0 28.737 28.838"><defs><style>.a{fill:#8d9fc1;}</style></defs><path class="a" d="M245.6,3.664a.567.567,0,0,0,.567-.567V.567a.567.567,0,1,0-1.134,0V3.1A.567.567,0,0,0,245.6,3.664Z" transform="translate(-231.285 0)"/><path class="a" d="M29.077,97.013l-1-1a1.9,1.9,0,0,0-2.248-.321L23.94,93.807l.092-.092a1.969,1.969,0,0,0,0-2.78,1.947,1.947,0,0,0-.987-.534,1.981,1.981,0,0,0,.078-.552,1.964,1.964,0,0,0-1.563-1.924,1.981,1.981,0,0,0,.078-.552,1.962,1.962,0,0,0-1.562-1.923,1.963,1.963,0,0,0-2.1-2.505l-3.742-.708a2.021,2.021,0,0,0-1.733.23,1.025,1.025,0,0,0-.086.089,1.973,1.973,0,0,0-2.07.455A1.951,1.951,0,0,0,9.772,84.4a1.983,1.983,0,0,0,.078.552,1.965,1.965,0,0,0-1.562,1.922,1.978,1.978,0,0,0,.078.553,1.967,1.967,0,0,0-1.219,3.035,1.966,1.966,0,0,0-.755,3.252l.092.091L4.6,95.693a1.9,1.9,0,0,0-2.146.372l-1,1a1.895,1.895,0,0,0,0,2.676L2.7,100.99a.567.567,0,0,0,.8-.8l-1.251-1.25a.761.761,0,0,1,0-1.07l1-1a.759.759,0,0,1,.925-.113.573.573,0,0,0,.071.087.564.564,0,0,0,.163.113l5.75,5.742a.559.559,0,0,0,.273.276.759.759,0,0,1-.031,1.036l-1,1a.762.762,0,0,1-1.073,0l-1.251-1.251a.567.567,0,0,0-.8.8l1.252,1.252a1.9,1.9,0,0,0,2.675,0l1-1a1.9,1.9,0,0,0,.266-2.343l2.125-2.123.007-.007c.243-.252.921-.2,1.577-.159a8.157,8.157,0,0,0,1.492.01L19,102.515a1.9,1.9,0,0,0,.322,2.246l1,1a1.9,1.9,0,0,0,2.675,0l6.08-6.072a1.895,1.895,0,0,0,0-2.676ZM14.024,83.352l2.461.466L15.012,85.29a3.576,3.576,0,0,1-.883-.641,2.61,2.61,0,0,1-.835-1.289h0a.5.5,0,0,1,0-.056,1.922,1.922,0,0,1,.732.049Zm-2.876.462a.837.837,0,0,1,1.058-.1,4.057,4.057,0,0,0,1.138,1.754,4.2,4.2,0,0,0,1.634,1.013.833.833,0,0,1-1.273,1.063h0L11.149,84.99a.835.835,0,0,1,0-1.176ZM9.666,86.29a.837.837,0,0,1,1.179,0l2.06,2.056a.834.834,0,0,1-1.18,1.178h0l-1.563-1.562-.008-.007-.489-.489a.832.832,0,0,1,0-1.176ZM8.181,88.764a.839.839,0,0,1,1.175,0l1.567,1.567A.833.833,0,0,1,9.744,91.5l-.568-.568h0l-.994-.993a.834.834,0,0,1,0-1.177Zm-.988,2.973a.838.838,0,0,1,1.18,0l.569.568a.833.833,0,0,1-1.18,1.175l-.071-.071,0,0,0,0-.492-.49a.833.833,0,0,1,0-1.176Zm11.559,6.447a.567.567,0,0,0-.8,0l-.5.5c-.48.48-1.348.419-2.189.361a3,3,0,0,0-2.467.5L10.7,101.633,5.477,96.416l1.849-1.846a1.967,1.967,0,0,0,2.994-1.678s0-.01,0-.015h.015A1.962,1.962,0,0,0,12.3,90.915s0-.01,0-.015h.015a1.96,1.96,0,0,0,1.966-1.979H14.3a1.968,1.968,0,0,0,1.679-2.991l1.621-1.62a.832.832,0,0,1,.426-.227l.05-.008a.831.831,0,0,1,.706,1.411l-.494.492-.005,0-.568.568a.567.567,0,0,0,.8.8l.5-.495h0l.075-.075a.835.835,0,0,1,1.177,0,.832.832,0,0,1,0,1.176l-.5.5h0l-.568.566a.567.567,0,1,0,.8.8l.571-.569a.833.833,0,0,1,1.178,1.177l-.99.99a.567.567,0,1,0,.8.8l.485-.485.009-.008a.833.833,0,0,1,1.178,1.176l-.493.493h0l-.783.782a.567.567,0,0,0,.8.8l.383-.382,1.835,1.833-5.224,5.218-1.872-1.87a2.23,2.23,0,0,0,.373-.3l.5-.5a.567.567,0,0,0,0-.8Zm9.523.7-6.08,6.072a.762.762,0,0,1-1.072,0l-1-1a.758.758,0,0,1,0-1.069l6.08-6.072a.762.762,0,0,1,1.073,0l1,1a.76.76,0,0,1,0,1.071Z" transform="translate(-0.894 -77.526)"/><path class="a" d="M83.957,5.776a.567.567,0,0,0,.8-.8L82.691,2.911a.567.567,0,1,0-.8.8Z" transform="translate(-77.171 -2.59)"/><path class="a" d="M372.219,5.943a.566.566,0,0,0,.4-.166l2.065-2.063a.567.567,0,0,0-.8-.8l-2.065,2.063a.567.567,0,0,0,.4.968Z" transform="translate(-350.769 -2.591)"/><path class="a" d="M60.093,430.363a.567.567,0,0,0,.007.8l0,0a.567.567,0,1,0-.008-.8Z" transform="translate(-56.605 -405.963)"/><path class="a" d="M333.078,333.253a.567.567,0,1,0-.255-1.074l0,0a.567.567,0,0,0,.258,1.072Z" transform="translate(-313.832 -313.412)"/></svg>