<svg xmlns="http://www.w3.org/2000/svg" width="31.089" height="31.088" viewBox="0 0 31.089 31.088"><defs><style>.a{fill:#a1a0ae;}</style></defs><g transform="translate(0 -0.007)"><path class="a" d="M30.291,2.791a3.915,3.915,0,0,0-3.151-1.57h-.529v-.3a.911.911,0,1,0-1.822,0V3.347a.911.911,0,1,0,1.822,0v-.3h.529a2.125,2.125,0,0,1,2.043,2.709l-2.417,8.461a5.529,5.529,0,0,1-10.633,0L13.716,5.752a2.125,2.125,0,0,1,2.043-2.709h.529v.3a.911.911,0,0,0,1.822,0V.918a.911.911,0,1,0-1.822,0v.3h-.529a3.947,3.947,0,0,0-3.795,5.031l2.417,8.461a7.3,7.3,0,0,0,2.641,3.849,7.449,7.449,0,0,0,.859.559l2.656,6.27v.657a3.226,3.226,0,0,1-6.452,0V19.8a5.222,5.222,0,0,0-10.444,0v2.156a4.554,4.554,0,1,0,1.822,0V19.8a3.4,3.4,0,0,1,6.8,0v6.246a5.047,5.047,0,0,0,10.095,0v-.657l2.656-6.27a7.443,7.443,0,0,0,.859-.559,7.3,7.3,0,0,0,2.641-3.849l2.417-8.461a3.914,3.914,0,0,0-.644-3.461Zm-23,23.629a2.732,2.732,0,1,1-2.732-2.732A2.735,2.735,0,0,1,7.286,26.42Zm14.163-3.549L20.208,19.94a7.419,7.419,0,0,0,2.484,0Z"/><ellipse class="a" cx="0.5" cy="1.5" rx="0.5" ry="1.5" transform="translate(4 25.007)"/></g></svg>